<?xml version="1.0" encoding="UTF-8" standalone="no"?>
<!-- Created with Inkscape (http://www.inkscape.org/) -->

<svg
   width="146.466mm"
   height="89.711998mm"
   viewBox="0 0 146.466 89.711997"
   version="1.1"
   id="svg1"
   inkscape:version="1.3 (0e150ed6c4, 2023-07-21)"
   sodipodi:docname="Sucesion-Cauchy.svg"
   xmlns:inkscape="http://www.inkscape.org/namespaces/inkscape"
   xmlns:sodipodi="http://sodipodi.sourceforge.net/DTD/sodipodi-0.dtd"
   xmlns="http://www.w3.org/2000/svg"
   xmlns:svg="http://www.w3.org/2000/svg">
  <sodipodi:namedview
     id="namedview1"
     pagecolor="#ffffff"
     bordercolor="#000000"
     borderopacity="0.25"
     inkscape:showpageshadow="2"
     inkscape:pageopacity="0.0"
     inkscape:pagecheckerboard="0"
     inkscape:deskcolor="#d1d1d1"
     inkscape:document-units="mm"
     inkscape:zoom="1.4912879"
     inkscape:cx="281.30048"
     inkscape:cy="148.52934"
     inkscape:window-width="1920"
     inkscape:window-height="1051"
     inkscape:window-x="-9"
     inkscape:window-y="-9"
     inkscape:window-maximized="1"
     inkscape:current-layer="layer3"
     showguides="true" />
  <defs
     id="defs1">
    <inkscape:path-effect
       effect="spiro"
       id="path-effect82"
       is_visible="true"
       lpeversion="1" />
    <inkscape:path-effect
       effect="spiro"
       id="path-effect81"
       is_visible="true"
       lpeversion="1" />
    <marker
       style="overflow:visible"
       id="Dot"
       refX="0"
       refY="0"
       orient="auto"
       inkscape:stockid="Dot"
       markerWidth="0.80000001"
       markerHeight="0.80000001"
       viewBox="0 0 1 1"
       inkscape:isstock="true"
       inkscape:collect="always"
       preserveAspectRatio="xMidYMid">
      <path
         transform="scale(0.5)"
         style="fill:context-stroke;fill-rule:evenodd;stroke:none"
         d="M 5,0 C 5,2.76 2.76,5 0,5 -2.76,5 -5,2.76 -5,0 c 0,-2.76 2.3,-5 5,-5 2.76,0 5,2.24 5,5 z"
         sodipodi:nodetypes="sssss"
         id="path17" />
    </marker>
    <inkscape:path-effect
       effect="spiro"
       id="path-effect11"
       is_visible="true"
       lpeversion="1" />
    <inkscape:path-effect
       effect="spiro"
       id="path-effect10"
       is_visible="true"
       lpeversion="1" />
    <inkscape:path-effect
       effect="spiro"
       id="path-effect9"
       is_visible="true"
       lpeversion="1" />
    <inkscape:path-effect
       effect="spiro"
       id="path-effect8"
       is_visible="true"
       lpeversion="1" />
    <inkscape:path-effect
       effect="spiro"
       id="path-effect7"
       is_visible="true"
       lpeversion="1" />
    <inkscape:path-effect
       effect="spiro"
       id="path-effect6"
       is_visible="true"
       lpeversion="1" />
    <inkscape:path-effect
       effect="spiro"
       id="path-effect5"
       is_visible="true"
       lpeversion="1" />
    <inkscape:path-effect
       effect="spiro"
       id="path-effect4"
       is_visible="true"
       lpeversion="1" />
    <inkscape:path-effect
       effect="spiro"
       id="path-effect3"
       is_visible="true"
       lpeversion="1" />
    <marker
       style="overflow:visible"
       id="ConcaveTriangle"
       refX="0"
       refY="0"
       orient="auto-start-reverse"
       inkscape:stockid="Concave triangle arrow"
       markerWidth="0.80000001"
       markerHeight="0.80000001"
       viewBox="0 0 1 1"
       inkscape:isstock="true"
       inkscape:collect="always"
       preserveAspectRatio="xMidYMid">
      <path
         transform="scale(0.7)"
         d="M -2,-4 9,0 -2,4 c 2,-2.33 2,-5.66 0,-8 z"
         style="fill:context-stroke;fill-rule:evenodd;stroke:none"
         id="path7" />
    </marker>
    <inkscape:path-effect
       effect="spiro"
       id="path-effect2"
       is_visible="true"
       lpeversion="1" />
    <inkscape:path-effect
       effect="spiro"
       id="path-effect3-7"
       is_visible="true"
       lpeversion="1" />
    <inkscape:path-effect
       effect="spiro"
       id="path-effect4-4"
       is_visible="true"
       lpeversion="1" />
    <inkscape:path-effect
       effect="spiro"
       id="path-effect5-3"
       is_visible="true"
       lpeversion="1" />
  </defs>
  <g
     inkscape:label="Capa 1"
     inkscape:groupmode="layer"
     id="layer1"
     sodipodi:insensitive="true"
     style="display:none"
     transform="translate(-48.51826,-73.185968)">
    <path
       d="M 0,0 V 296.99999 M 10.583333,0 V 296.99999 M 21.166666,0 V 296.99999 M 31.749999,0 V 296.99999 M 42.333332,0 V 296.99999 M 52.916665,0 V 296.99999 M 63.499999,0 V 296.99999 M 74.083332,0 V 296.99999 M 84.666665,0 V 296.99999 M 95.249998,0 V 296.99999 M 105.83333,0 V 296.99999 M 116.41666,0 V 296.99999 M 127,0 V 296.99999 M 137.58333,0 V 296.99999 M 148.16666,0 V 296.99999 M 158.75,0 V 296.99999 M 169.33333,0 V 296.99999 M 179.91666,0 V 296.99999 M 190.5,0 V 296.99999 M 201.08333,0 V 296.99999 M 0,0 H 210 M 0,10.583333 H 210 M 0,21.166666 H 210 M 0,31.749999 H 210 M 0,42.333332 H 210 M 0,52.916665 H 210 M 0,63.499999 H 210 M 0,74.083332 H 210 M 0,84.666665 H 210 M 0,95.249998 H 210 M 0,105.83333 H 210 M 0,116.41666 H 210 M 0,127 H 210 M 0,137.58333 H 210 M 0,148.16666 H 210 M 0,158.75 H 210 M 0,169.33333 H 210 M 0,179.91666 H 210 M 0,190.5 H 210 M 0,201.08333 H 210 M 0,211.66666 H 210 M 0,222.24999 H 210 M 0,232.83333 H 210 M 0,243.41666 H 210 M 0,253.99999 H 210 M 0,264.58333 H 210 M 0,275.16666 H 210 M 0,285.74999 H 210 M 0,296.33333 h 210"
       style="opacity:0.575663;fill:none;stroke:#000000;stroke-width:0.264583px"
       id="path1" />
  </g>
  <g
     inkscape:groupmode="layer"
     id="layer3"
     inkscape:label="Color"
     transform="translate(-48.51826,-73.185968)">
    <rect
       style="opacity:1;fill:#fa7e00;fill-opacity:0.14893617;stroke:none;stroke-width:0.6;stroke-linecap:round;stroke-linejoin:round;stroke-dasharray:3.59999, 3.59999;stroke-dashoffset:0;stroke-opacity:1"
       id="rect4"
       width="116.92353"
       height="21.452707"
       x="65.192894"
       y="107.09468" />
  </g>
  <g
     inkscape:groupmode="layer"
     id="layer2"
     inkscape:label="Ejes"
     transform="translate(-48.51826,-73.185968)">
    <path
       style="opacity:1;fill:none;stroke:#000000;stroke-width:0.6;stroke-linecap:round;stroke-linejoin:round;stroke-dasharray:none;stroke-dashoffset:0;stroke-opacity:1;marker-start:url(#ConcaveTriangle);marker-end:url(#ConcaveTriangle)"
       d="m 179.90165,148.03623 -116.547164,0.2509 -0.0041,-63.697579"
       id="path2"
       inkscape:path-effect="#path-effect2"
       inkscape:original-d="m 179.90165,148.03623 -116.547164,0.2509 -0.0041,-63.697579"
       transform="translate(1.8070453,1.3993184)"
       sodipodi:nodetypes="ccc" />
    <path
       style="opacity:1;fill:none;stroke:#000000;stroke-width:0.600001;stroke-linecap:round;stroke-linejoin:round;stroke-dasharray:none;stroke-dashoffset:0;stroke-opacity:1"
       d="m 84.589406,147.94201 -0.03313,4.29694"
       id="path3"
       inkscape:path-effect="#path-effect3"
       inkscape:original-d="m 84.589406,147.94201 -0.03313,4.29694"
       transform="rotate(-0.49617977,51.926862,-43.949523)"
       sodipodi:nodetypes="cc" />
    <path
       style="fill:none;stroke:#000000;stroke-width:0.600001;stroke-linecap:round;stroke-linejoin:round;stroke-dasharray:none;stroke-dashoffset:0;stroke-opacity:1"
       d="m 84.589406,147.94201 -0.03313,4.29694"
       id="path3-5"
       inkscape:path-effect="#path-effect3-7"
       inkscape:original-d="m 84.589406,147.94201 -0.03313,4.29694"
       transform="rotate(-0.49617977,92.911894,-8595.854)"
       sodipodi:nodetypes="cc" />
    <path
       style="opacity:1;fill:none;stroke:#d48201;stroke-width:0.7;stroke-linecap:round;stroke-linejoin:round;stroke-dasharray:4.19999972, 4.19999972;stroke-dashoffset:0;stroke-opacity:0.69999999"
       d="M 63.479941,105.75808 180.0271,105.88354"
       id="path4"
       inkscape:path-effect="#path-effect4"
       inkscape:original-d="M 63.479941,105.75808 180.0271,105.88354"
       transform="translate(1.5875,1.5875)" />
    <path
       style="fill:none;stroke:#d48201;stroke-width:0.7;stroke-linecap:round;stroke-linejoin:round;stroke-dasharray:4.19999972, 4.19999972;stroke-dashoffset:0;stroke-opacity:0.69999999"
       d="M 63.479941,105.75808 180.0271,105.88354"
       id="path4-2"
       inkscape:path-effect="#path-effect4-4"
       inkscape:original-d="M 63.479941,105.75808 180.0271,105.88354"
       transform="translate(2.1330099,22.745913)" />
    <path
       style="opacity:1;fill:#fa7e00;fill-opacity:0.252046;stroke:#818181;stroke-width:0.6;stroke-linecap:round;stroke-linejoin:round;stroke-dasharray:4.8, 4.8;stroke-dashoffset:4.98;stroke-opacity:1"
       d="M 84.556284,148.03623 V 84.17992"
       id="path5"
       inkscape:path-effect="#path-effect5"
       inkscape:original-d="M 84.556284,148.03623 V 84.17992"
       transform="translate(1.7129545,1.2111367)" />
    <path
       style="fill:#fa7e00;fill-opacity:0.252046;stroke:#818181;stroke-width:0.6;stroke-linecap:round;stroke-linejoin:round;stroke-dasharray:4.8, 4.8;stroke-dashoffset:4.98;stroke-opacity:1"
       d="M 84.556284,148.03623 V 84.17992"
       id="path5-4"
       inkscape:path-effect="#path-effect5-3"
       inkscape:original-d="M 84.556284,148.03623 V 84.17992"
       transform="translate(75.804751,1.2421412)" />
  </g>
  <g
     inkscape:groupmode="layer"
     id="layer4"
     inkscape:label="Funciones"
     transform="translate(-48.51826,-73.185968)">
    <path
       style="opacity:0.6;fill:none;fill-opacity:1;stroke:#1300ff;stroke-width:0.600001;stroke-linecap:round;stroke-linejoin:round;stroke-dasharray:none;stroke-dashoffset:0;stroke-opacity:1;marker-start:url(#Dot);marker-end:url(#Dot)"
       d="m 84.932649,114.66535 c 5.38429,2.13511 11.366265,2.7387 17.068551,1.72222 5.93452,-1.05787 11.43551,-3.79978 16.61064,-6.891 5.17512,-3.09122 10.12889,-6.56811 15.49894,-9.30675 7.63051,-3.891445 16.04569,-6.236328 24.58907,-6.851727"
       id="path6"
       transform="translate(1.5875,-5.8208336)"
       sodipodi:nodetypes="cssc"
       inkscape:original-d="m 84.932649,114.66535 c 2.978332,0.0168 14.084419,1.72222 17.068551,1.72222 12.1055,0 21.7326,-10.14451 32.10958,-16.19775 7.44583,-4.343402 15.9307,-6.851727 24.58907,-6.851727"
       inkscape:path-effect="#path-effect7" />
    <path
       style="opacity:0.6;fill:none;fill-opacity:1;stroke:#1300ff;stroke-width:0.7;stroke-linecap:round;stroke-linejoin:round;stroke-dasharray:none;stroke-dashoffset:0;stroke-opacity:1;marker-start:url(#Dot);marker-end:url(#Dot)"
       d="m 84.859158,135.9065 c 1.698199,-1.96329 3.928756,-3.46156 6.38846,-4.29115 2.459703,-0.8296 5.142056,-0.98832 7.682431,-0.45459 2.961251,0.62215 5.642301,2.1383 8.351781,3.48545 2.70948,1.34715 5.60366,2.56567 8.62914,2.51483 2.96175,-0.0498 5.75149,-1.30805 8.45096,-2.52763 2.69946,-1.21957 5.51068,-2.44655 8.47279,-2.4275 2.39155,0.0154 4.69869,0.84646 6.90211,1.77636 2.20341,0.92989 4.38296,1.97695 6.72415,2.4654 4.19124,0.87444 8.74706,-0.19319 12.11341,-2.83871"
       id="path8"
       sodipodi:nodetypes="cssssc"
       transform="translate(1.5875,1.5875)"
       inkscape:original-d="m 84.859158,135.9065 c 6.278449,-1.77126 7.165252,-5.73226 14.070891,-4.74574 4.558601,0.65123 12.782731,4.42596 16.980921,6.00028 4.66483,1.74931 12.01157,-4.46391 16.92375,-4.95513 5.21309,-0.5213 8.73738,6.01954 13.62626,4.24176 3.70063,-1.34568 8.02297,-2.83871 12.11341,-2.83871"
       inkscape:path-effect="#path-effect8" />
    <path
       style="opacity:1;fill:none;fill-opacity:1;stroke:#000000;stroke-width:0.600001;stroke-linecap:round;stroke-linejoin:round;stroke-dasharray:none;stroke-dashoffset:18.822;stroke-opacity:1;marker-start:url(#Dot);marker-end:url(#Dot)"
       d="m 84.807194,119.80898 c 10.584947,0.22619 21.190636,-0.52783 31.637116,-2.24926 6.96387,-1.14755 13.86749,-2.72516 20.89415,-3.38727 7.1997,-0.67841 14.49034,-0.38518 21.6123,0.86926"
       id="path9"
       inkscape:path-effect="#path-effect9"
       inkscape:original-d="m 84.807194,119.80898 c 11.923903,-0.65686 19.941116,0.0899 31.637116,-2.24926 5.10257,-1.02052 17.30381,-7.26378 20.89415,-3.38727 17.65344,19.06049 13.91447,0.86926 21.6123,0.86926"
       sodipodi:nodetypes="cssc"
       transform="translate(1.5875,1.0583333)" />
    <path
       style="opacity:1;fill:none;fill-opacity:1;stroke:#ff0800;stroke-width:0.600001;stroke-linecap:round;stroke-linejoin:round;stroke-dasharray:2.4, 2.4;stroke-dashoffset:0;stroke-opacity:1;marker-start:url(#Dot);marker-end:url(#Dot)"
       d="m 84.932649,115.16717 c 3.258558,-1.62481 7.279613,-1.62481 10.538171,0 1.821815,0.90841 3.372139,2.26699 5.02063,3.46143 1.6485,1.19444 3.48933,2.26003 5.51754,2.43493 1.80117,0.15532 3.60989,-0.41604 5.16848,-1.33209 1.55858,-0.91605 2.89488,-2.16309 4.15946,-3.45505 1.26459,-1.29196 2.47509,-2.64272 3.8482,-3.81869 1.3731,-1.17598 2.93167,-2.18273 4.67513,-2.66093 1.5642,-0.42903 3.22748,-0.41667 4.82384,-0.12959 1.59636,0.28708 3.13337,0.84188 4.6222,1.48544 2.97766,1.28712 5.83104,2.9498 8.99576,3.66232 3.06695,0.6905 6.34006,0.43519 9.26284,-0.72252 2.92278,-1.15772 5.48294,-3.21298 7.24518,-5.81633"
       id="path10"
       inkscape:path-effect="#path-effect10"
       inkscape:original-d="m 84.932649,115.16717 c 3.328707,-0.49726 7.292797,1.08179 10.538171,0 2.289088,-0.76303 8.19084,6.36582 10.53817,5.89636 7.11652,-1.4233 10.65598,-10.23887 17.85127,-11.26676 6.22766,-0.88967 12.22476,5.90632 18.4418,5.01817 5.23726,-0.74818 11.15652,-6.53885 16.50802,-6.53885"
       sodipodi:nodetypes="cssssc"
       transform="translate(1.5875,1.5875)" />
    <path
       style="opacity:1;fill:none;fill-opacity:1;stroke:#ff0d00;stroke-width:0.600001;stroke-linecap:round;stroke-linejoin:round;stroke-dasharray:none;stroke-dashoffset:18.822;stroke-opacity:1;marker-start:url(#Dot);marker-end:url(#Dot)"
       d="m 84.807194,124.07443 c 2.485299,-5.15671 7.235838,-9.17063 12.735039,-10.76035 5.499197,-1.58971 11.658707,-0.72967 16.512137,2.30556 1.19106,0.74486 2.30206,1.61041 3.47432,2.38453 1.17225,0.77413 2.42308,1.46339 3.78575,1.8048 1.95563,0.48998 4.04651,0.23052 5.94226,-0.45555 1.89575,-0.68606 3.61767,-1.78035 5.24189,-2.97469 3.24845,-2.3887 6.29708,-5.27693 10.16092,-6.42976 3.49814,-1.04372 7.44249,-0.47675 10.50502,1.51002 3.06253,1.98676 5.188,5.35748 5.66077,8.97726"
       id="path11"
       inkscape:path-effect="#path-effect11"
       inkscape:original-d="m 84.807194,124.07443 c 11.677922,-1.53587 17.884306,-5.04593 29.247176,-8.45479 1.35383,-0.40615 5.91291,4.5747 7.26007,4.18933 3.92734,-1.12209 17.26668,-9.27738 21.34507,-9.86 7.28062,-1.04009 8.9377,10.48728 16.16579,10.48728"
       sodipodi:nodetypes="cscsc"
       transform="translate(1.5875,1.5875)" />
  </g>
  <g
     inkscape:groupmode="layer"
     id="layer5"
     inkscape:label="LaTeX"
     transform="translate(-48.51826,-73.185968)">
    <g
       inkscape:label=""
       transform="translate(188.3218,147.6928)"
       id="g12">
      <g
         fill="#000000"
         fill-opacity="1"
         id="g2"
         transform="matrix(0.352778,0,0,0.352778,-58.5126,-13.7199)">
        <g
           id="use1"
           transform="translate(165.175,49.813)">
          <path
             d="m 11.75,-10.109375 c -0.796875,0.140625 -1.09375,0.734375 -1.09375,1.21875 0,0.59375 0.46875,0.78125 0.8125,0.78125 0.75,0 1.265625,-0.640625 1.265625,-1.3125 0,-1.03125 -1.1875,-1.5 -2.234375,-1.5 -1.5,0 -2.34375,1.484375 -2.5625,1.953125 -0.578125,-1.859375 -2.109375,-1.953125 -2.5625,-1.953125 -2.53125,0 -3.859375,3.234375 -3.859375,3.78125 0,0.109375 0.09375,0.234375 0.265625,0.234375 0.203125,0 0.25,-0.15625 0.296875,-0.25 0.84375,-2.75 2.5,-3.28125 3.21875,-3.28125 1.125,0 1.34375,1.046875 1.34375,1.640625 C 6.640625,-8.25 6.5,-7.6875 6.1875,-6.5 l -0.828125,3.40625 c -0.375,1.484375 -1.09375,2.84375 -2.40625,2.84375 -0.125,0 -0.75,0 -1.265625,-0.3125 0.890625,-0.1875 1.09375,-0.921875 1.09375,-1.21875 0,-0.5 -0.375,-0.796875 -0.84375,-0.796875 -0.59375,0 -1.25,0.515625 -1.25,1.3125 0,1.046875 1.171875,1.515625 2.234375,1.515625 1.1875,0 2.03125,-0.9375 2.5625,-1.953125 C 5.875,-0.25 7.109375,0.25 8.03125,0.25 c 2.53125,0 3.859375,-3.25 3.859375,-3.796875 0,-0.125 -0.09375,-0.21875 -0.25,-0.21875 -0.21875,0 -0.234375,0.125 -0.3125,0.328125 -0.671875,2.171875 -2.109375,3.1875 -3.21875,3.1875 -0.875,0 -1.34375,-0.640625 -1.34375,-1.65625 0,-0.546875 0.09375,-0.9375 0.5,-2.578125 L 8.125,-7.859375 C 8.5,-9.34375 9.34375,-10.4375 10.484375,-10.4375 c 0.04687,0 0.734375,0 1.265625,0.328125 z m 0,0"
             id="path12" />
        </g>
      </g>
    </g>
    <g
       inkscape:label=""
       transform="translate(63.060637,74.773436)"
       id="g15">
      <g
         fill="#000000"
         fill-opacity="1"
         id="g14"
         transform="matrix(0.352778,0,0,0.352778,-58.6958,-13.7199)">
        <g
           id="g13"
           transform="translate(165.71001,49.813)">
          <path
             d="M 6.515625,2.78125 C 5.84375,3.71875 4.875,4.5625 3.671875,4.5625 3.375,4.5625 2.1875,4.515625 1.8125,3.375 1.890625,3.390625 2,3.390625 2.0625,3.390625 2.796875,3.390625 3.296875,2.75 3.296875,2.1875 3.296875,1.609375 2.828125,1.40625 2.453125,1.40625 2.0625,1.40625 1.1875,1.703125 1.1875,2.921875 1.1875,4.1875 2.25,5.0625 3.671875,5.0625 c 2.46875,0 4.984375,-2.28125 5.671875,-5.03125 l 2.421875,-9.671875 c 0.03125,-0.125 0.07813,-0.265625 0.07813,-0.421875 0,-0.375 -0.296875,-0.625 -0.671875,-0.625 -0.21875,0 -0.734375,0.109375 -0.9375,0.84375 l -1.82813,7.296875 c -0.125,0.4375 -0.125,0.484375 -0.328125,0.765625 -0.5,0.6875 -1.3125,1.53125 -2.5,1.53125 C 4.1875,-0.25 4.0625,-1.609375 4.0625,-2.28125 c 0,-1.40625 0.671875,-3.3125 1.34375,-5.109375 0.265625,-0.71875 0.421875,-1.0625 0.421875,-1.5625 0,-1.03125 -0.75,-1.96875 -1.96875,-1.96875 -2.265625,0 -3.1875,3.59375 -3.1875,3.78125 0,0.109375 0.09375,0.234375 0.265625,0.234375 0.234375,0 0.25,-0.109375 0.34375,-0.453125 0.609375,-2.078125 1.546875,-3.078125 2.515625,-3.078125 0.21875,0 0.640625,0 0.640625,0.828125 0,0.640625 -0.28125,1.359375 -0.640625,2.296875 -1.21875,3.25 -1.21875,4.0625 -1.21875,4.65625 0,2.359375 1.6875,2.90625 2.921875,2.90625 0.71875,0 1.609375,-0.21875 2.484375,-1.140625 L 8,-0.875 C 7.625,0.59375 7.390625,1.5625 6.515625,2.78125 Z m 0,0"
             id="path13" />
        </g>
      </g>
    </g>
    <g
       inkscape:label=""
       transform="translate(84.626483,156.20001)"
       id="g18">
      <g
         fill="#000000"
         fill-opacity="1"
         id="g17"
         transform="matrix(0.352778,0,0,0.352778,-58.8029,-13.7199)">
        <g
           id="g16"
           transform="translate(165.701,49.813)">
          <path
             d="m 7.453125,-2.953125 c -0.125,0.421875 -0.125,0.46875 -0.46875,0.953125 -0.546875,0.6875 -1.625,1.75 -2.796875,1.75 -1.015625,0 -1.578125,-0.921875 -1.578125,-2.375 0,-1.359375 0.765625,-4.140625 1.234375,-5.1875 0.84375,-1.734375 2,-2.625 2.96875,-2.625 1.640625,0 1.953125,2.03125 1.953125,2.234375 0,0.03125 -0.0625,0.34375 -0.09375,0.390625 z m 1.59375,-6.34375 c -0.28125,-0.640625 -0.9375,-1.625 -2.234375,-1.625 -2.796875,0 -5.828125,3.609375 -5.828125,7.28125 0,2.453125 1.4375,3.890625 3.125,3.890625 1.375,0 2.53125,-1.0625 3.21875,-1.890625 C 7.578125,-0.171875 8.75,0.25 9.484375,0.25 c 0.75,0 1.34375,-0.453125 1.796875,-1.34375 0.390625,-0.84375 0.734375,-2.34375 0.734375,-2.453125 0,-0.125 -0.09375,-0.21875 -0.25,-0.21875 -0.21875,0 -0.25,0.125 -0.34375,0.5 C 11.046875,-1.8125 10.578125,-0.25 9.5625,-0.25 c -0.71875,0 -0.765625,-0.640625 -0.765625,-1.140625 0,-0.5625 0.078125,-0.84375 0.296875,-1.8125 0.171875,-0.609375 0.296875,-1.15625 0.5,-1.875 0.90625,-3.71875 1.140625,-4.609375 1.140625,-4.765625 0,-0.34375 -0.28125,-0.609375 -0.640625,-0.609375 -0.796875,0 -1,0.859375 -1.046875,1.15625 z m 0,0"
             id="path15" />
        </g>
      </g>
    </g>
    <g
       inkscape:label=""
       transform="translate(158.97039,154.32859)"
       id="g21">
      <g
         fill="#000000"
         fill-opacity="1"
         id="g20"
         transform="matrix(0.352778,0,0,0.352778,-59.2742,-11.504)">
        <g
           id="g19"
           transform="translate(166.912,49.813)">
          <path
             d="m 5.71875,-16.578125 c 0.03125,-0.09375 0.078125,-0.25 0.078125,-0.375 0,-0.25 -0.25,-0.25 -0.296875,-0.25 -0.015625,0 -0.921875,0.07813 -1.359375,0.125 C 3.71875,-17.046875 3.34375,-17 2.90625,-16.96875 c -0.609375,0.04687 -0.78125,0.0625 -0.78125,0.515625 0,0.25 0.25,0.25 0.5,0.25 1.265625,0 1.265625,0.21875 1.265625,0.46875 0,0.171875 -0.203125,0.890625 -0.296875,1.34375 L 3,-12.015625 c -0.25,0.984375 -1.65625,6.609375 -1.765625,7.0625 -0.125,0.609375 -0.125,1.03125 -0.125,1.359375 0,2.53125 1.421875,3.84375 3.03125,3.84375 2.875,0 5.84375,-3.6875 5.84375,-7.28125 0,-2.28125 -1.28125,-3.890625 -3.140625,-3.890625 -1.296875,0 -2.453125,1.0625 -2.921875,1.546875 z M 4.15625,-0.25 C 3.375,-0.25 2.5,-0.84375 2.5,-2.78125 2.5,-3.59375 2.578125,-4.0625 3.015625,-5.796875 3.09375,-6.125 3.5,-7.703125 3.59375,-8.03125 3.640625,-8.234375 5.109375,-10.4375 6.796875,-10.4375 7.875,-10.4375 8.375,-9.34375 8.375,-8.046875 8.375,-6.859375 7.6875,-4.0625 7.0625,-2.78125 6.4375,-1.4375 5.296875,-0.25 4.15625,-0.25 Z m 0,0"
             id="path18" />
        </g>
      </g>
    </g>
    <g
       inkscape:label=""
       transform="translate(67.676275,119.12806)"
       id="g53"
       style="fill:#ff0d00;fill-opacity:1">
      <g
         fill="#000000"
         fill-opacity="1"
         id="g47"
         transform="matrix(0.352778,0,0,0.352778,-63.5369,-7.62031)"
         style="fill:#ff0d00;fill-opacity:1">
        <g
           id="g46"
           transform="translate(178.839,39.054001)"
           style="fill:#ff0d00;fill-opacity:1">
          <path
             d="m 11.046875,-9.96875 c 0.5,0 0.703125,0 0.703125,-0.46875 0,-0.25 -0.203125,-0.25 -0.640625,-0.25 H 9.09375 c 0.46875,-2.546875 0.8125,-4.3125 1.015625,-5.09375 0.15625,-0.59375 0.671875,-1.171875 1.3125,-1.171875 0.515625,0 1.046875,0.21875 1.296875,0.453125 -0.96875,0.09375 -1.265625,0.8125 -1.265625,1.234375 0,0.5 0.375,0.796875 0.84375,0.796875 0.484375,0 1.234375,-0.421875 1.234375,-1.359375 0,-1.046875 -1.046875,-1.625 -2.125,-1.625 -1.078125,0 -2.109375,0.796875 -2.609375,1.765625 -0.453125,0.875 -0.6875,1.765625 -1.265625,5 H 5.875 c -0.46875,0 -0.71875,0 -0.71875,0.453125 0,0.265625 0.140625,0.265625 0.640625,0.265625 h 1.59375 C 6.9375,-7.65625 5.921875,-2.0625 5.359375,0.59375 4.9375,2.75 4.5625,4.5625 3.328125,4.5625 c -0.078125,0 -0.796875,0 -1.25,-0.46875 C 3.34375,3.984375 3.34375,2.90625 3.34375,2.875 3.34375,2.375 2.96875,2.078125 2.5,2.078125 2,2.078125 1.265625,2.5 1.265625,3.4375 c 0,1.078125 1.09375,1.625 2.0625,1.625 2.515625,0 3.5625,-4.546875 3.828125,-5.78125 0.453125,-1.90625 1.671875,-8.5 1.796875,-9.25 z m 0,0"
             id="path45"
             style="fill:#ff0d00;fill-opacity:1" />
        </g>
      </g>
      <g
         fill="#000000"
         fill-opacity="1"
         id="g49"
         transform="matrix(0.352778,0,0,0.352778,-63.5369,-7.62031)"
         style="fill:#ff0d00;fill-opacity:1">
        <g
           id="g48"
           transform="translate(190.802,42.771999)"
           style="fill:#ff0d00;fill-opacity:1">
          <path
             d="M 10.609375,-8.296875 C 10.765625,-8.90625 11,-9.34375 12.09375,-9.375 c 0.04687,0 0.21875,-0.015625 0.21875,-0.265625 0,-0.15625 -0.140625,-0.15625 -0.1875,-0.15625 -0.296875,0 -1.015625,0.03125 -1.3125,0.03125 H 10.125 c -0.203125,0 -0.453125,-0.03125 -0.65625,-0.03125 -0.09375,0 -0.265625,0 -0.265625,0.265625 0,0.15625 0.125,0.15625 0.21875,0.15625 0.859375,0.015625 0.921875,0.359375 0.921875,0.609375 0,0.125 -0.01563,0.171875 -0.0625,0.375 l -1.625,6.46875 -3.0625,-7.625 c -0.09375,-0.234375 -0.109375,-0.25 -0.4375,-0.25 h -1.75 C 3.125,-9.796875 3,-9.796875 3,-9.53125 3,-9.375 3.09375,-9.375 3.375,-9.375 c 0.0625,0 0.90625,0 0.90625,0.125 0,0.03125 -0.015625,0.140625 -0.03125,0.1875 l -1.90625,7.59375 c -0.171875,0.703125 -0.515625,1.015625 -1.46875,1.046875 -0.078125,0 -0.21875,0.015625 -0.21875,0.28125 C 0.65625,0 0.796875,0 0.84375,0 1.140625,0 1.859375,-0.03125 2.15625,-0.03125 h 0.6875 C 3.046875,-0.03125 3.28125,0 3.484375,0 3.578125,0 3.75,0 3.75,-0.265625 3.75,-0.40625 3.59375,-0.421875 3.546875,-0.421875 3.0625,-0.4375 2.609375,-0.515625 2.609375,-1.03125 c 0,-0.109375 0.03125,-0.25 0.0625,-0.359375 L 4.609375,-9.0625 C 4.6875,-8.921875 4.6875,-8.890625 4.75,-8.765625 l 3.40625,8.5 C 8.234375,-0.09375 8.265625,0 8.390625,0 8.53125,0 8.546875,-0.046875 8.609375,-0.28125 Z m 0,0"
             id="path47"
             style="fill:#ff0d00;fill-opacity:1" />
        </g>
      </g>
      <g
         fill="#000000"
         fill-opacity="1"
         id="g52"
         transform="matrix(0.352778,0,0,0.352778,-63.5369,-7.62031)"
         style="fill:#ff0d00;fill-opacity:1">
        <g
           id="g50"
           transform="translate(203.549,42.771999)"
           style="fill:#ff0d00;fill-opacity:1">
          <path
             d="M 5.71875,-3.3125 H 9.6875 c 0.203125,0 0.453125,0 0.453125,-0.265625 0,-0.265625 -0.25,-0.265625 -0.453125,-0.265625 H 5.71875 v -3.953125 c 0,-0.203125 0,-0.46875 -0.25,-0.46875 -0.28125,0 -0.28125,0.25 -0.28125,0.46875 V -3.84375 H 1.234375 c -0.203125,0 -0.453125,0 -0.453125,0.265625 0,0.265625 0.234375,0.265625 0.453125,0.265625 H 5.1875 v 3.953125 c 0,0.203125 0,0.46875 0.265625,0.46875 0.265625,0 0.265625,-0.25 0.265625,-0.46875 z m 0,0"
             id="path49"
             style="fill:#ff0d00;fill-opacity:1" />
        </g>
        <g
           id="g51"
           transform="translate(214.47507,42.771999)"
           style="fill:#ff0d00;fill-opacity:1">
          <path
             d="M 6.3125,-2.40625 H 6 c -0.046875,0.234375 -0.15625,1.03125 -0.3125,1.265625 -0.09375,0.125 -0.90625,0.125 -1.34375,0.125 H 1.6875 c 0.390625,-0.328125 1.265625,-1.25 1.640625,-1.59375 2.1875,-2.015625 2.984375,-2.75 2.984375,-4.171875 0,-1.65625 -1.3125,-2.75 -2.96875,-2.75 -1.671875,0 -2.640625,1.40625 -2.640625,2.640625 0,0.734375 0.625,0.734375 0.671875,0.734375 0.296875,0 0.671875,-0.21875 0.671875,-0.671875 C 2.046875,-7.234375 1.78125,-7.5 1.375,-7.5 1.25,-7.5 1.21875,-7.5 1.171875,-7.484375 1.453125,-8.46875 2.21875,-9.125 3.15625,-9.125 4.375,-9.125 5.125,-8.109375 5.125,-6.78125 5.125,-5.5625 4.421875,-4.5 3.59375,-3.578125 L 0.703125,-0.34375 V 0 H 5.9375 Z m 0,0"
             id="path50"
             style="fill:#ff0d00;fill-opacity:1" />
        </g>
      </g>
    </g>
    <g
       inkscape:label=""
       transform="translate(67.676275,108.98512)"
       id="g61"
       style="fill:#ff0d00;fill-opacity:1">
      <g
         fill="#000000"
         fill-opacity="1"
         id="g55"
         transform="matrix(0.352778,0,0,0.352778,-63.5369,-7.62031)"
         style="fill:#ff0d00;fill-opacity:1">
        <g
           id="g54"
           transform="translate(178.839,39.054001)"
           style="fill:#ff0d00;fill-opacity:1">
          <path
             d="m 11.046875,-9.96875 c 0.5,0 0.703125,0 0.703125,-0.46875 0,-0.25 -0.203125,-0.25 -0.640625,-0.25 H 9.09375 c 0.46875,-2.546875 0.8125,-4.3125 1.015625,-5.09375 0.15625,-0.59375 0.671875,-1.171875 1.3125,-1.171875 0.515625,0 1.046875,0.21875 1.296875,0.453125 -0.96875,0.09375 -1.265625,0.8125 -1.265625,1.234375 0,0.5 0.375,0.796875 0.84375,0.796875 0.484375,0 1.234375,-0.421875 1.234375,-1.359375 0,-1.046875 -1.046875,-1.625 -2.125,-1.625 -1.078125,0 -2.109375,0.796875 -2.609375,1.765625 -0.453125,0.875 -0.6875,1.765625 -1.265625,5 H 5.875 c -0.46875,0 -0.71875,0 -0.71875,0.453125 0,0.265625 0.140625,0.265625 0.640625,0.265625 h 1.59375 C 6.9375,-7.65625 5.921875,-2.0625 5.359375,0.59375 4.9375,2.75 4.5625,4.5625 3.328125,4.5625 c -0.078125,0 -0.796875,0 -1.25,-0.46875 C 3.34375,3.984375 3.34375,2.90625 3.34375,2.875 3.34375,2.375 2.96875,2.078125 2.5,2.078125 2,2.078125 1.265625,2.5 1.265625,3.4375 c 0,1.078125 1.09375,1.625 2.0625,1.625 2.515625,0 3.5625,-4.546875 3.828125,-5.78125 0.453125,-1.90625 1.671875,-8.5 1.796875,-9.25 z m 0,0"
             id="path53"
             style="fill:#ff0d00;fill-opacity:1" />
        </g>
      </g>
      <g
         fill="#000000"
         fill-opacity="1"
         id="g57"
         transform="matrix(0.352778,0,0,0.352778,-63.5369,-7.62031)"
         style="fill:#ff0d00;fill-opacity:1">
        <g
           id="g56"
           transform="translate(190.802,42.771999)"
           style="fill:#ff0d00;fill-opacity:1">
          <path
             d="M 10.609375,-8.296875 C 10.765625,-8.90625 11,-9.34375 12.09375,-9.375 c 0.04687,0 0.21875,-0.015625 0.21875,-0.265625 0,-0.15625 -0.140625,-0.15625 -0.1875,-0.15625 -0.296875,0 -1.015625,0.03125 -1.3125,0.03125 H 10.125 c -0.203125,0 -0.453125,-0.03125 -0.65625,-0.03125 -0.09375,0 -0.265625,0 -0.265625,0.265625 0,0.15625 0.125,0.15625 0.21875,0.15625 0.859375,0.015625 0.921875,0.359375 0.921875,0.609375 0,0.125 -0.01563,0.171875 -0.0625,0.375 l -1.625,6.46875 -3.0625,-7.625 c -0.09375,-0.234375 -0.109375,-0.25 -0.4375,-0.25 h -1.75 C 3.125,-9.796875 3,-9.796875 3,-9.53125 3,-9.375 3.09375,-9.375 3.375,-9.375 c 0.0625,0 0.90625,0 0.90625,0.125 0,0.03125 -0.015625,0.140625 -0.03125,0.1875 l -1.90625,7.59375 c -0.171875,0.703125 -0.515625,1.015625 -1.46875,1.046875 -0.078125,0 -0.21875,0.015625 -0.21875,0.28125 C 0.65625,0 0.796875,0 0.84375,0 1.140625,0 1.859375,-0.03125 2.15625,-0.03125 h 0.6875 C 3.046875,-0.03125 3.28125,0 3.484375,0 3.578125,0 3.75,0 3.75,-0.265625 3.75,-0.40625 3.59375,-0.421875 3.546875,-0.421875 3.0625,-0.4375 2.609375,-0.515625 2.609375,-1.03125 c 0,-0.109375 0.03125,-0.25 0.0625,-0.359375 L 4.609375,-9.0625 C 4.6875,-8.921875 4.6875,-8.890625 4.75,-8.765625 l 3.40625,8.5 C 8.234375,-0.09375 8.265625,0 8.390625,0 8.53125,0 8.546875,-0.046875 8.609375,-0.28125 Z m 0,0"
             id="path55"
             style="fill:#ff0d00;fill-opacity:1" />
        </g>
      </g>
      <g
         fill="#000000"
         fill-opacity="1"
         id="g60"
         transform="matrix(0.352778,0,0,0.352778,-63.5369,-7.62031)"
         style="fill:#ff0d00;fill-opacity:1">
        <g
           id="g58"
           transform="translate(203.549,42.771999)"
           style="fill:#ff0d00;fill-opacity:1">
          <path
             d="M 5.71875,-3.3125 H 9.6875 c 0.203125,0 0.453125,0 0.453125,-0.265625 0,-0.265625 -0.25,-0.265625 -0.453125,-0.265625 H 5.71875 v -3.953125 c 0,-0.203125 0,-0.46875 -0.25,-0.46875 -0.28125,0 -0.28125,0.25 -0.28125,0.46875 V -3.84375 H 1.234375 c -0.203125,0 -0.453125,0 -0.453125,0.265625 0,0.265625 0.234375,0.265625 0.453125,0.265625 H 5.1875 v 3.953125 c 0,0.203125 0,0.46875 0.265625,0.46875 0.265625,0 0.265625,-0.25 0.265625,-0.46875 z m 0,0"
             id="path57"
             style="fill:#ff0d00;fill-opacity:1" />
        </g>
        <g
           id="g59"
           transform="translate(214.47507,42.771999)"
           style="fill:#ff0d00;fill-opacity:1">
          <path
             d="m 4.125,-9.1875 c 0,-0.34375 0,-0.34375 -0.28125,-0.34375 C 3.5,-9.15625 2.78125,-8.625 1.3125,-8.625 v 0.421875 c 0.328125,0 1.046875,0 1.828125,-0.375 v 7.46875 c 0,0.515625 -0.046875,0.6875 -1.296875,0.6875 H 1.390625 V 0 c 0.390625,-0.03125 1.78125,-0.03125 2.25,-0.03125 0.46875,0 1.859375,0 2.234375,0.03125 V -0.421875 H 5.4375 c -1.265625,0 -1.3125,-0.171875 -1.3125,-0.6875 z m 0,0"
             id="path58"
             style="fill:#ff0d00;fill-opacity:1" />
        </g>
      </g>
    </g>
    <g
       inkscape:label=""
       transform="translate(163.6894,112.75615)"
       id="g66">
      <g
         fill="#000000"
         fill-opacity="1"
         id="g63"
         transform="matrix(0.352778,0,0,0.352778,-66.7031,-7.62031)">
        <g
           id="g62"
           transform="translate(187.814,39.054001)">
          <path
             d="m 11.046875,-9.96875 c 0.5,0 0.703125,0 0.703125,-0.46875 0,-0.25 -0.203125,-0.25 -0.640625,-0.25 H 9.09375 c 0.46875,-2.546875 0.8125,-4.3125 1.015625,-5.09375 0.15625,-0.59375 0.671875,-1.171875 1.3125,-1.171875 0.515625,0 1.046875,0.21875 1.296875,0.453125 -0.96875,0.09375 -1.265625,0.8125 -1.265625,1.234375 0,0.5 0.375,0.796875 0.84375,0.796875 0.484375,0 1.234375,-0.421875 1.234375,-1.359375 0,-1.046875 -1.046875,-1.625 -2.125,-1.625 -1.078125,0 -2.109375,0.796875 -2.609375,1.765625 -0.453125,0.875 -0.6875,1.765625 -1.265625,5 H 5.875 c -0.46875,0 -0.71875,0 -0.71875,0.453125 0,0.265625 0.140625,0.265625 0.640625,0.265625 h 1.59375 C 6.9375,-7.65625 5.921875,-2.0625 5.359375,0.59375 4.9375,2.75 4.5625,4.5625 3.328125,4.5625 c -0.078125,0 -0.796875,0 -1.25,-0.46875 C 3.34375,3.984375 3.34375,2.90625 3.34375,2.875 3.34375,2.375 2.96875,2.078125 2.5,2.078125 2,2.078125 1.265625,2.5 1.265625,3.4375 c 0,1.078125 1.09375,1.625 2.0625,1.625 2.515625,0 3.5625,-4.546875 3.828125,-5.78125 0.453125,-1.90625 1.671875,-8.5 1.796875,-9.25 z m 0,0"
             id="path61" />
        </g>
      </g>
      <g
         fill="#000000"
         fill-opacity="1"
         id="g65"
         transform="matrix(0.352778,0,0,0.352778,-66.7031,-7.62031)">
        <g
           id="g64"
           transform="translate(199.77699,42.771999)">
          <path
             d="M 10.609375,-8.296875 C 10.765625,-8.90625 11,-9.34375 12.09375,-9.375 c 0.04687,0 0.21875,-0.015625 0.21875,-0.265625 0,-0.15625 -0.140625,-0.15625 -0.1875,-0.15625 -0.296875,0 -1.015625,0.03125 -1.3125,0.03125 H 10.125 c -0.203125,0 -0.453125,-0.03125 -0.65625,-0.03125 -0.09375,0 -0.265625,0 -0.265625,0.265625 0,0.15625 0.125,0.15625 0.21875,0.15625 0.859375,0.015625 0.921875,0.359375 0.921875,0.609375 0,0.125 -0.01563,0.171875 -0.0625,0.375 l -1.625,6.46875 -3.0625,-7.625 c -0.09375,-0.234375 -0.109375,-0.25 -0.4375,-0.25 h -1.75 C 3.125,-9.796875 3,-9.796875 3,-9.53125 3,-9.375 3.09375,-9.375 3.375,-9.375 c 0.0625,0 0.90625,0 0.90625,0.125 0,0.03125 -0.015625,0.140625 -0.03125,0.1875 l -1.90625,7.59375 c -0.171875,0.703125 -0.515625,1.015625 -1.46875,1.046875 -0.078125,0 -0.21875,0.015625 -0.21875,0.28125 C 0.65625,0 0.796875,0 0.84375,0 1.140625,0 1.859375,-0.03125 2.15625,-0.03125 h 0.6875 C 3.046875,-0.03125 3.28125,0 3.484375,0 3.578125,0 3.75,0 3.75,-0.265625 3.75,-0.40625 3.59375,-0.421875 3.546875,-0.421875 3.0625,-0.4375 2.609375,-0.515625 2.609375,-1.03125 c 0,-0.109375 0.03125,-0.25 0.0625,-0.359375 L 4.609375,-9.0625 C 4.6875,-8.921875 4.6875,-8.890625 4.75,-8.765625 l 3.40625,8.5 C 8.234375,-0.09375 8.265625,0 8.390625,0 8.53125,0 8.546875,-0.046875 8.609375,-0.28125 Z m 0,0"
             id="path63" />
        </g>
      </g>
    </g>
    <g
       inkscape:label=""
       transform="translate(163.74883,131.26166)"
       id="g71"
       style="opacity:0.9;fill:#1300ff;fill-opacity:1">
      <g
         fill="#000000"
         fill-opacity="1"
         id="g68"
         transform="matrix(0.352778,0,0,0.352778,-67.7124,-7.62031)"
         style="fill:#1300ff;fill-opacity:1">
        <g
           id="g67"
           transform="translate(190.675,39.054001)"
           style="fill:#1300ff;fill-opacity:1">
          <path
             d="m 11.046875,-9.96875 c 0.5,0 0.703125,0 0.703125,-0.46875 0,-0.25 -0.203125,-0.25 -0.640625,-0.25 H 9.09375 c 0.46875,-2.546875 0.8125,-4.3125 1.015625,-5.09375 0.15625,-0.59375 0.671875,-1.171875 1.3125,-1.171875 0.515625,0 1.046875,0.21875 1.296875,0.453125 -0.96875,0.09375 -1.265625,0.8125 -1.265625,1.234375 0,0.5 0.375,0.796875 0.84375,0.796875 0.484375,0 1.234375,-0.421875 1.234375,-1.359375 0,-1.046875 -1.046875,-1.625 -2.125,-1.625 -1.078125,0 -2.109375,0.796875 -2.609375,1.765625 -0.453125,0.875 -0.6875,1.765625 -1.265625,5 H 5.875 c -0.46875,0 -0.71875,0 -0.71875,0.453125 0,0.265625 0.140625,0.265625 0.640625,0.265625 h 1.59375 C 6.9375,-7.65625 5.921875,-2.0625 5.359375,0.59375 4.9375,2.75 4.5625,4.5625 3.328125,4.5625 c -0.078125,0 -0.796875,0 -1.25,-0.46875 C 3.34375,3.984375 3.34375,2.90625 3.34375,2.875 3.34375,2.375 2.96875,2.078125 2.5,2.078125 2,2.078125 1.265625,2.5 1.265625,3.4375 c 0,1.078125 1.09375,1.625 2.0625,1.625 2.515625,0 3.5625,-4.546875 3.828125,-5.78125 0.453125,-1.90625 1.671875,-8.5 1.796875,-9.25 z m 0,0"
             id="path66"
             style="fill:#1300ff;fill-opacity:1" />
        </g>
      </g>
      <g
         fill="#000000"
         fill-opacity="1"
         id="g70"
         transform="matrix(0.352778,0,0,0.352778,-67.7124,-7.62031)"
         style="fill:#1300ff;fill-opacity:1">
        <g
           id="g69"
           transform="translate(202.638,42.771999)"
           style="fill:#1300ff;fill-opacity:1">
          <path
             d="m 4.125,-9.1875 c 0,-0.34375 0,-0.34375 -0.28125,-0.34375 C 3.5,-9.15625 2.78125,-8.625 1.3125,-8.625 v 0.421875 c 0.328125,0 1.046875,0 1.828125,-0.375 v 7.46875 c 0,0.515625 -0.046875,0.6875 -1.296875,0.6875 H 1.390625 V 0 c 0.390625,-0.03125 1.78125,-0.03125 2.25,-0.03125 0.46875,0 1.859375,0 2.234375,0.03125 V -0.421875 H 5.4375 c -1.265625,0 -1.3125,-0.171875 -1.3125,-0.6875 z m 0,0"
             id="path68"
             style="fill:#1300ff;fill-opacity:1" />
        </g>
      </g>
    </g>
    <g
       inkscape:label=""
       transform="translate(163.83754,82.929869)"
       id="g76"
       style="opacity:0.9;fill:#1300ff;fill-opacity:1">
      <g
         fill="#000000"
         fill-opacity="1"
         id="g73"
         transform="matrix(0.352778,0,0,0.352778,-67.7124,-7.62031)"
         style="fill:#1300ff;fill-opacity:1">
        <g
           id="g72"
           transform="translate(190.675,39.054001)"
           style="fill:#1300ff;fill-opacity:1">
          <path
             d="m 11.046875,-9.96875 c 0.5,0 0.703125,0 0.703125,-0.46875 0,-0.25 -0.203125,-0.25 -0.640625,-0.25 H 9.09375 c 0.46875,-2.546875 0.8125,-4.3125 1.015625,-5.09375 0.15625,-0.59375 0.671875,-1.171875 1.3125,-1.171875 0.515625,0 1.046875,0.21875 1.296875,0.453125 -0.96875,0.09375 -1.265625,0.8125 -1.265625,1.234375 0,0.5 0.375,0.796875 0.84375,0.796875 0.484375,0 1.234375,-0.421875 1.234375,-1.359375 0,-1.046875 -1.046875,-1.625 -2.125,-1.625 -1.078125,0 -2.109375,0.796875 -2.609375,1.765625 -0.453125,0.875 -0.6875,1.765625 -1.265625,5 H 5.875 c -0.46875,0 -0.71875,0 -0.71875,0.453125 0,0.265625 0.140625,0.265625 0.640625,0.265625 h 1.59375 C 6.9375,-7.65625 5.921875,-2.0625 5.359375,0.59375 4.9375,2.75 4.5625,4.5625 3.328125,4.5625 c -0.078125,0 -0.796875,0 -1.25,-0.46875 C 3.34375,3.984375 3.34375,2.90625 3.34375,2.875 3.34375,2.375 2.96875,2.078125 2.5,2.078125 2,2.078125 1.265625,2.5 1.265625,3.4375 c 0,1.078125 1.09375,1.625 2.0625,1.625 2.515625,0 3.5625,-4.546875 3.828125,-5.78125 0.453125,-1.90625 1.671875,-8.5 1.796875,-9.25 z m 0,0"
             id="path71"
             style="fill:#1300ff;fill-opacity:1" />
        </g>
      </g>
      <g
         fill="#000000"
         fill-opacity="1"
         id="g75"
         transform="matrix(0.352778,0,0,0.352778,-67.7124,-7.62031)"
         style="fill:#1300ff;fill-opacity:1">
        <g
           id="g74"
           transform="translate(202.638,42.771999)"
           style="fill:#1300ff;fill-opacity:1">
          <path
             d="M 6.3125,-2.40625 H 6 c -0.046875,0.234375 -0.15625,1.03125 -0.3125,1.265625 -0.09375,0.125 -0.90625,0.125 -1.34375,0.125 H 1.6875 c 0.390625,-0.328125 1.265625,-1.25 1.640625,-1.59375 2.1875,-2.015625 2.984375,-2.75 2.984375,-4.171875 0,-1.65625 -1.3125,-2.75 -2.96875,-2.75 -1.671875,0 -2.640625,1.40625 -2.640625,2.640625 0,0.734375 0.625,0.734375 0.671875,0.734375 0.296875,0 0.671875,-0.21875 0.671875,-0.671875 C 2.046875,-7.234375 1.78125,-7.5 1.375,-7.5 1.25,-7.5 1.21875,-7.5 1.171875,-7.484375 1.453125,-8.46875 2.21875,-9.125 3.15625,-9.125 4.375,-9.125 5.125,-8.109375 5.125,-6.78125 5.125,-5.5625 4.421875,-4.5 3.59375,-3.578125 L 0.703125,-0.34375 V 0 H 5.9375 Z m 0,0"
             id="path73"
             style="fill:#1300ff;fill-opacity:1" />
        </g>
      </g>
    </g>
    <g
       inkscape:label=""
       transform="translate(50.155726,116.11193)"
       id="g81"
       style="fill:#d48201;fill-opacity:1;stroke:#d48201;stroke-width:0.1;stroke-dasharray:none;stroke-opacity:1">
      <g
         fill="#000000"
         fill-opacity="1"
         id="g80"
         transform="matrix(0.352778,0,0,0.352778,-58.9254,-13.6207)"
         style="fill:#d48201;fill-opacity:1;stroke:#d48201;stroke-width:0.283464;stroke-dasharray:none;stroke-opacity:1">
        <g
           id="g79"
           transform="translate(166.392,49.813)"
           style="fill:#d48201;fill-opacity:1;stroke:#d48201;stroke-width:0.283464;stroke-dasharray:none;stroke-opacity:1">
          <path
             d="m 3.4375,-5.65625 c 0.796875,0.328125 1.640625,0.328125 2.109375,0.328125 0.640625,0 1.9375,0 1.9375,-0.71875 0,-0.453125 -0.46875,-0.625 -1.734375,-0.625 -0.625,0 -1.359375,0.078125 -2.234375,0.453125 -0.765625,-0.375 -1.0625,-0.9375 -1.0625,-1.484375 0,-1.546875 2.421875,-2.4375 4.640625,-2.4375 0.421875,0 1.3125,0 2.34375,0.765625 0.15625,0.109375 0.234375,0.1875 0.40625,0.1875 0.296875,0 0.609375,-0.328125 0.609375,-0.625 0,-0.453125 -1.4375,-1.390625 -3.140625,-1.390625 -2.78125,0 -5.40625,1.65625 -5.40625,3.5 0,0.90625 0.59375,1.484375 1.015625,1.78125 -1.4375,0.8125 -2.28125,2.15625 -2.28125,3.375 0,1.703125 1.546875,3.0625 3.921875,3.0625 3.265625,0 4.578125,-2.171875 4.578125,-2.515625 0,-0.125 -0.09375,-0.234375 -0.21875,-0.234375 -0.125,0 -0.171875,0.078125 -0.265625,0.234375 -0.28125,0.46875 -0.921875,1.453125 -3.875,1.453125 -1.53125,0 -3.5625,-0.390625 -3.5625,-2.15625 0,-0.84375 0.609375,-2.109375 2.21875,-2.953125 z m 0.78125,-0.296875 c 0.65625,-0.21875 1.3125,-0.21875 1.484375,-0.21875 0.6875,0 0.8125,0.046875 1.203125,0.15625 -0.40625,0.1875 -0.46875,0.1875 -1.359375,0.1875 -0.4375,0 -0.84375,0 -1.328125,-0.125 z m 0,0"
             id="path79"
             style="fill:#d48201;fill-opacity:1;stroke:#d48201;stroke-width:0.283464;stroke-dasharray:none;stroke-opacity:1" />
        </g>
      </g>
    </g>
    <path
       style="opacity:1;fill:none;fill-opacity:1;stroke:#d48201;stroke-width:0.5;stroke-linecap:round;stroke-linejoin:round;stroke-dasharray:none;stroke-dashoffset:0;stroke-opacity:1"
       d="m 59.01813,105.6003 c -0.422617,-0.0329 -0.854258,0.0606 -1.225452,0.26526 -0.469938,0.25915 -0.832969,0.6884 -1.067959,1.17087 -0.23499,0.48247 -0.348354,1.01688 -0.393905,1.5516 -0.0911,1.06943 0.08108,2.14828 -0.0095,3.21776 -0.14831,1.75073 -1.033417,3.42723 -2.395414,4.53719 1.630152,1.23697 2.627587,3.26726 2.610413,5.31352 -0.008,0.95195 -0.221663,1.89562 -0.196873,2.84728 0.01239,0.47584 0.08605,0.95467 0.268598,1.39427 0.18255,0.43959 0.479297,0.83916 0.878467,1.09845 0.373412,0.24256 0.829959,0.35443 1.273208,0.31197"
       id="path81"
       inkscape:path-effect="#path-effect82"
       inkscape:original-d="m 59.01813,105.6003 c 0,0 -0.877124,-0.50974 -1.225452,0.26526 -0.309638,0.76004 -0.874693,4.49905 -1.471387,5.94023 -0.495911,1.19776 -2.395414,4.53719 -2.395414,4.53719 0,0 2.019008,3.62282 2.610413,5.31352 0.494767,1.41443 0.81506,3.6377 0.950192,5.34 0.06092,0.76743 1.273208,0.31197 1.273208,0.31197"
       sodipodi:nodetypes="ccscssc"
       transform="matrix(1.0012374,0,0,0.97374509,2.138589,4.5784993)" />
  </g>
</svg>
